<?xml version="1.0" encoding="UTF-8"?><svg id="Layer_1" xmlns="http://www.w3.org/2000/svg" viewBox="0 0 400 400"><defs><style>.cls-1{fill:none;}.cls-2{fill:#f1f1f1;}.cls-3{fill:#ebb789;}.cls-4{fill:#fd4f6c;}.cls-5{fill:#604b37;}.cls-6{fill:#bd936e;}.cls-7{fill:#4a312c;}.cls-8{fill:#473729;}.cls-9{fill:#231817;}.cls-10{fill:#cacbcb;}.cls-11{fill:#ebb88a;}.cls-12{fill:#b9916c;}.cls-13{fill:#ecb889;}.cls-14{fill:#58392e;}.cls-15{fill:#624c39;}.cls-16{fill:#bc936d;}.cls-17{fill:#bc936e;}.cls-18{fill:#5e3e33;}.cls-19{fill:#4d3c2d;}.cls-20{fill:#bb926e;}.cls-21{fill:#e7b486;}.cls-22{fill:#ba926d;}.cls-23{fill:#ebb889;}.cls-24{fill:#21282c;}.cls-25{fill:#724133;}.cls-26{fill:#5f4a37;}.cls-27{fill:#f3f3f3;}.cls-28{fill:#c69a74;}.cls-29{fill:#262e33;}.cls-30{fill:#262a2e;}.cls-31{fill:#20272b;}.cls-32{fill:#fdfdfd;}.cls-33{fill:#684537;}</style></defs><path class="cls-1" d="M210,178l-.14-3.11c0,.06,0,.13,0,.19l.15,2.92Z"/><polygon class="cls-1" points="246 354.99 246 355 246 354.99 246 354.99"/><path class="cls-27" d="M144.02,399.79h9.51c-1.91-2.36-1.09-39.91-.53-43.62l2-1.17c-3.9-1.12-7.26-2.55-11-4,1.96,16.25,1.96,32.55.02,48.79Z"/><path class="cls-2" d="M246.02,399.79h9.81c-1.93-16.12-1.93-32.29-.02-48.41-3.33,1.3-6.39,2.56-9.81,3.61,0,0,0,0,0,0,1.96,14.91,1.96,29.88.02,44.79Z"/><path class="cls-7" d="M118.29,139.81c2.36-26.85,11.64-49.91,33.22-66.63,11.52,11.48,31.13,16.15,46.95,16.86,18.18.82,36.64-2.07,51.53-13.04,3.06,11.02,17.48,17.74,22.76,26.75,3.83,6.53,7.81,26.05,8.99,34.03.24,1.6,1.06,4.21-.74,5.22,2.43.59,5.94,1.21,8,2,4.08-9.61,6.01-19.11,6.99-29.51l-.99-28.49c-3.02-3.18-5.34-12.04-7.97-16.53-2.7-4.59-6.15-6.9-8.87-11.14,8.28-11.5,11.62-28.65.38-39.38-12.19-11.64-24.8-.02-37.49,2.59-19.31,3.98-40.32-9.53-61.54-7.54-18.65,1.74-43.12,16.32-48.51,34.99l-1,5c-.92,5.11-3.49,4.08-7.01,7.49-6.22,6.03-10.63,13.11-12.99,21.51-2.83,10.06-4.79,26.17-4.04,36.54.62,8.47,3.75,17.1,5.04,25.46,2.97-1.18,5.9-2.24,9-3-3.17.48-1.88-1.28-1.71-3.19Z"/><path class="cls-9" d="M130,55l1-5c-.65,2.27-.63,2.95-1,5Z"/><path class="cls-29" d="M286.48,334.98c-3.69,3.01-26.05,16.59-29.48,16.02-.32-.06-.62-.09-.92-.13v.2c.12.12.23.25.32.4.35,16.25.21,32.35-.39,48.32h109.21c-1.26-9.54-35.68-57.86-41.91-64.3-6.42-6.64-15.49-15.5-24.41-17.29-3.04,6.42-6.87,12.25-12.43,16.78Z"/><path class="cls-29" d="M255.82,351.39c-1.91,16.12-1.91,32.29.02,48.41h.17c.61-15.96.74-32.07.39-48.32-.09-.16-.2-.29-.32-.4v.21c-.09.03-.17.07-.26.1Z"/><path class="cls-29" d="M144,346c3.58,2.16,7.14,4.37,11,6,8.28,3.5,17.22,5.74,26.01,7.5,0,2.12-23.88-3.89-26.01-4.5v44.79h91v-44.79c-.12.04-.24.07-.36.11-.19.06-.36.12-.55.17h0c-6.45,1.91-13.29,3.9-20.09,3.22,6.71-1.91,13.55-3.66,20.09-6.15v-.06c3.86-1.63,7.42-3.84,11-6v4.29l.88-1.67c-.05-1.26-.08-2.52.2-3.75,10.03-4.45,18.5-13.11,23.66-22.83.73-1.38,5.11-10.7,5.18-11.32,3.96-1.95-1.06-12.56-3.25-15.56-5.6-7.67-20.09-18.33-29.75-14.44-6.49-.01-10.59,3.84-16,6,.09,14.93,1.72,27.63-6.98,40.52-14.29,21.2-46.22,20.31-60.05-1-8.08-12.45-5.73-25.39-5.98-39.52-5.26-2.1-10.06-5.98-16-6-10-3.32-23.97,5.93-29.61,14.23-2.51,3.69-8.3,13.52-3.39,15.77.14.63,4,9.65,4.61,10.89,5.35,10.7,14.4,18.1,24.39,24.11Z"/><path class="cls-29" d="M153.53,399.79h1.47v-44.79l-2,1.17c-.55,3.71-1.38,41.26.53,43.62Z"/><path class="cls-29" d="M246,355v44.79h.02c1.94-14.91,1.93-29.88-.02-44.79Z"/><path class="cls-29" d="M257,351c.02-.69-.01-1.39-.04-2.09l-.88,1.67v.3c.3.04.6.07.92.13Z"/><path class="cls-29" d="M144,351c-16.54-6.41-34.83-15.55-42-33-9.24,1.27-18.78,10.6-25.45,17.49-6.24,6.45-40.73,54.76-41.99,64.3h109.44v-48.79Z"/><path class="cls-29" d="M144,351v48.79h.02c1.94-16.25,1.94-32.55-.02-48.79Z"/><path class="cls-31" d="M282.59,323.26c-6.12,9.81-12.66,18.38-23.61,23.16.07.41.11.78.13,1.13,14.29-5.87,28.84-13.88,35.96-28.19l2.8-1.36c.35.05.7.13,1.04.2.03-.07.07-.13.1-.2-4.2-2.53-8.12-5.67-13-7,2.63,1.97-1.71,9.52-3.41,12.26Z"/><path class="cls-31" d="M295.06,319.36c-7.12,14.31-21.68,22.32-35.96,28.19.1,1.94-.59,3.09-2.1,3.45,3.42.56,25.78-13.02,29.48-16.02,5.56-4.53,9.39-10.35,12.43-16.78-.35-.07-.7-.15-1.04-.2l-2.8,1.36Z"/><path class="cls-31" d="M257.16,345.15c-.28,1.23-.25,2.49-.2,3.75l.32-.61c.61-.24,1.21-.49,1.82-.74-.02-.35-.05-.73-.13-1.13,10.95-4.78,17.49-13.35,23.61-23.16,1.71-2.74,6.04-10.29,3.41-12.26-.08.62-4.45,9.94-5.18,11.32-5.16,9.72-13.63,18.38-23.66,22.83Z"/><path class="cls-31" d="M257,351c1.51-.36,2.2-1.51,2.1-3.45-.61.25-1.21.5-1.82.74l-.32.61c.03.7.06,1.4.04,2.09Z"/><path class="cls-31" d="M142.58,348.29l1.42,2.71v-5c-1.02.42-2.11.67-3.19.38-6.17-1.66-17.26-14.62-21.06-20.12-2.22-3.21-7.11-12.36-4.75-15.25-4.88,1.33-8.79,4.47-13,7l2.8,1.36c7.42,14.92,22.93,22.99,37.78,28.93Z"/><path class="cls-31" d="M119.75,326.25c3.8,5.5,14.88,18.46,21.06,20.12,1.08.29,2.18.04,3.19-.38-9.98-6.02-19.04-13.41-24.39-24.11-.62-1.24-4.48-10.26-4.61-10.89-2.37,2.9,2.53,12.04,4.75,15.25Z"/><path class="cls-31" d="M144,351l-1.42-2.71c-14.85-5.94-30.36-14.01-37.78-28.93l-2.8-1.36c7.17,17.45,25.46,26.59,42,33Z"/><path class="cls-24" d="M155,352v3c1.39-.8,1.39-1.8,0-3Z"/><path class="cls-24" d="M155,355c2.13.61,26.01,6.62,26.01,4.5-8.79-1.76-17.73-4-26.01-7.5,1.39,1.2,1.39,2.2,0,3Z"/><path class="cls-10" d="M144.92,350.62c.78-.23,1.65-.27,2.54-.14-.52-.34-1.01-.72-1.44-1.13-.07.47-.4.9-1.1,1.27Z"/><path class="cls-10" d="M151.84,352.15c.44.27.86.56,1.25.87.24-.34.86-.67,1.91-1.02-.95.28-2.04.32-3.16.15Z"/><path class="cls-10" d="M153.09,353.02c-.39-.31-.81-.6-1.25-.87-1.5-.22-3.05-.82-4.38-1.68-.9-.13-1.76-.09-2.54.14-.26.14-.55.26-.92.38,3.74,1.45,7.1,2.88,11,4-1.6-.78-2.32-1.4-1.91-1.98Z"/><path class="cls-10" d="M146.02,349.35c.44.41.92.79,1.44,1.13,1.48.21,3.03.84,4.38,1.68,1.12.17,2.21.13,3.16-.15-3.86-1.63-7.42-3.84-11-6,1.17,1.19,2.15,2.36,2.02,3.35Z"/><path class="cls-10" d="M151.84,352.15c-1.35-.83-2.9-1.46-4.38-1.68,1.33.86,2.88,1.45,4.38,1.68Z"/><path class="cls-10" d="M146.02,349.35c-1.01-.96-1.75-2.09-2.02-3.35v5c.29-.17.6-.29.92-.38.7-.37,1.03-.8,1.1-1.27Z"/><path class="cls-10" d="M144,351c.36-.12.66-.25.92-.38-.32.1-.63.21-.92.38Z"/><path class="cls-10" d="M146.02,349.35c.14-.98-.85-2.15-2.02-3.35.26,1.25,1.01,2.39,2.02,3.35Z"/><path class="cls-10" d="M153.09,353.02c.8.63,1.46,1.31,1.91,1.98v-3c-1.05.35-1.67.68-1.91,1.02Z"/><path class="cls-10" d="M153.09,353.02c-.4.58.31,1.2,1.91,1.98-.45-.67-1.12-1.35-1.91-1.98Z"/><path class="cls-24" d="M245.98,355s0,0,.02,0h0s-.01,0-.02,0Z"/><path class="cls-24" d="M245.08,354.87v-1.95c-.92,1.05-.92,1.7,0,1.95Z"/><path class="cls-24" d="M245.64,355.11c.12-.04.24-.07.36-.11,0,0,0,0-.02,0-.12.04-.23.07-.35.11Z"/><path class="cls-24" d="M245.08,352.93v-.58c-6.54,2.5-13.38,4.24-20.09,6.15,6.8.68,13.64-1.31,20.09-3.23v-.4c-.92-.25-.92-.9,0-1.95Z"/><path class="cls-10" d="M248.91,352.21c-.46.2-.95.41-1.48.64l-1.43-.85v2.99s0,0,0,0c.35-.92,1.5-1.94,2.9-2.78Z"/><path class="cls-10" d="M255.94,350.85c-.07,0-.14-.02-.2-.03.06.03.11.07.16.1l.04-.08Z"/><path class="cls-10" d="M255.9,350.93c-.05-.04-.11-.07-.16-.1-2.4-.23-4.17.26-6.83,1.38-1.41.84-2.55,1.87-2.9,2.78,3.42-1.04,6.48-2.31,9.81-3.61.02-.13.03-.26.04-.39l.04-.07Z"/><path class="cls-10" d="M255.9,350.93c.06.05.13.09.19.15v-.2s-.1-.02-.15-.02l-.04.08Z"/><path class="cls-10" d="M255.9,350.93l-.04.07c-.02.13-.03.26-.04.39.09-.03.17-.07.26-.1v-.21c-.06-.05-.12-.1-.19-.15Z"/><path class="cls-10" d="M247.43,352.85c.53-.23,1.02-.45,1.48-.64,2.31-1.38,5.33-2.27,6.83-1.38.06,0,.14.02.2.03l.15-.28v-4.29c-3.58,2.16-7.14,4.37-11,6v.06c.31-.12.61-.23.92-.35l1.43.85Z"/><path class="cls-10" d="M245.08,355.28c.19-.05.37-.12.55-.17-.18.05-.37.11-.55.16h0Z"/><path class="cls-10" d="M255.73,350.82c-1.5-.88-4.52,0-6.83,1.38,2.66-1.12,4.43-1.61,6.83-1.38Z"/><path class="cls-10" d="M256.08,350.87v-.3l-.15.28s.1.01.15.02Z"/><path class="cls-10" d="M245.08,352.93v1.95c.24.07.53.11.9.12,0,0,.01,0,.02,0v-2.99c-.38.34-.67.64-.92.93Z"/><path class="cls-10" d="M245.08,354.87v.4c.18-.05.37-.11.55-.16.12-.04.23-.07.35-.11-.37,0-.66-.06-.9-.12Z"/><path class="cls-10" d="M246,352c-.3.12-.61.23-.92.35v.58c.25-.28.54-.58.92-.93Z"/><path class="cls-13" d="M109.95,170.55c.18-1.68,1.14-3.17,2.05-4.55,0-.33,0-.67,0-1-5.23-.05-9.4,1.03-10-5-1.45,1.55-1.8,3.46-2,5.5-.58,5.88-.7,20.14.24,25.76.88,5.25,5.41,12.29,10.76,13.74-.53-.73-1.02-1.49-1.39-2.29-1.74-3.86-.32-26.13.33-32.16Z"/><path class="cls-11" d="M289,165c.92,1.43,1.87,2.96,2.05,4.68.65,6.2,2.12,29.01.34,33-.36.82-.86,1.57-1.39,2.31,15.74-8.56,11.22-30.38,9-45-.97,5.31-5.53,5.41-10,5Z"/><path class="cls-13" d="M200.86,340.97c28.07-.22,36.9-27.19,34.25-50.96-26.12,13.93-43.5,14.09-69.2.07-2.88,24.34,6.1,51.12,34.95,50.89Z"/><path class="cls-13" d="M235.1,290.01c2.65,23.77-6.18,50.74-34.25,50.96-28.85.22-37.83-26.56-34.95-50.89-.34-.19-.69-.37-1.03-.56l-.87-2.52c.25,14.14-2.11,27.07,5.98,39.52,13.83,21.31,45.76,22.2,60.05,1,8.69-12.9,7.06-25.6,6.98-40.52l-1.24,2.66c-.22.12-.44.23-.66.35Z"/><path class="cls-13" d="M248.65,80.38c-25.71,16.79-73.11,16.17-96.67-4.03-.44-.38-.52-.96-.43-1.5-20.26,17.44-30.49,42.77-31.55,68.16,2.77-4.03,13.1-6.02,17-3,6.32-15.64,25.82-18.64,40.26-12.76,7.03,2.86-8.88,2.67-9.74,2.77-7.41.91-16.66,4-21.52,9.98,15.76-5.29,34.15-1.59,48.96,5.2,8.83,1.36,17.7-.32,26.62-5.04,5.07-2.39,9.04-2.44,11.92-.16.09-.78.35-1.96.9-2,8.66-.57,20.98-.56,29.65,0l1.45,2c2.3-3.43,14.12-.65,15.5,3-2.09-12.62-5.26-25.08-9.53-37.4-7.77-8.21-15.38-16.62-22.83-25.22Z"/><path class="cls-13" d="M281.74,137.78c-1.18-7.99-5.16-27.5-8.99-34.03-5.28-9.01-19.7-15.73-22.76-26.75-14.89,10.97-33.35,13.86-51.53,13.04-15.82-.72-35.43-5.39-46.95-16.86-21.59,16.72-30.86,39.78-33.22,66.63-.17,1.92-1.46,3.67,1.71,3.19,1.06-25.38,11.28-50.71,31.55-68.16-.09.55-.01,1.13.43,1.5,23.57,20.2,70.97,20.82,96.67,4.03,7.45,8.6,15.06,17.01,22.83,25.22,4.26,12.32,7.44,24.79,9.53,37.4,1.79-1,.97-3.62.74-5.22Z"/><path class="cls-13" d="M183,202l-1-4.99c10.73,1.33,25.85-1.81,36,0-.86-2.9-4.27-5.79-6-11-3.17.35-4.93-6.78-2-8-.73-3.93-1.44-7.62-1.11-11.89-5.79-1.31-12.6-2.44-17.89.89,2.95,2.25,2.73,12.59-1,14-5.55,26.26-47.49,30.51-66,16l2.28,3.26c1.35,9.77,3.11,19.47,5.26,29.1,13.58-13.85,26.42-25.78,47.53-28.15l2.92,1.8c.1-.47.55-.96,1-1Z"/><path class="cls-13" d="M210,178l-.15-2.92c-.02.95.02,1.93.15,2.92Z"/><path class="cls-28" d="M218,197l-2.13,1.71c-10.45-.11-20.9.12-31.35.67.51,1.26-.26,1.95-1.52,2.62,2.33-.22,6.77-.32,9,0,1.35-1.74,4.14-1.49,8.38.76l11.2-2.27c3.09-1.03,5.23-.53,6.42,1.5-.25-1.45.36-3.78,0-5Z"/><path class="cls-28" d="M182,197.01l1,4.99c1.25-.67,2.02-1.36,1.52-2.62,10.45-.55,20.9-.77,31.35-.67l2.13-1.71c-10.15-1.8-25.27,1.33-36,0Z"/><path class="cls-5" d="M163.13,128.73c20.81-1.13.51-3.27-7.34-1.53-6.67,1.48-12.09,5-15.66,10.74,2.17-.53,4.65.11,5.87,2.06-.65-6.52,11.46-9.83,17.13-11.27Z"/><path class="cls-5" d="M167.52,130.02c.86-.11,16.77.09,9.74-2.77-14.44-5.88-33.94-2.88-40.26,12.76.74-1.06,1.88-1.76,3.13-2.06,3.57-5.74,8.98-9.27,15.66-10.74,7.85-1.74,28.15.4,7.34,1.53-5.68,1.44-17.79,4.75-17.13,11.27,4.86-5.98,14.11-9.07,21.52-9.98Z"/><path class="cls-25" d="M164,287c9.88,3.94,24.43,11.64,34.45,12.04,12.65.51,26.64-7.29,38.55-12.04.67-4.02,13.35-10.3,16-6,5.85-4.46,13.4-7.02,18.64-12.35,14.46-14.7,17.72-43.82,18.36-63.65.42-13.17-1-26.62-1-40v-3c-.31.07-.66.84-1,1,1.02,2.33-1.14,2.89-1.8,3.45-.09.23-.17.47-.25.72-.61,3.41.29,6.33-.95,10.84-1.45,5.3-4.17,9.2-8,13,2.52,1.07.13,3.29,0,4-2.3,12.23-3.01,24.88-6.01,37-2.7,1.96-18.62-16.89-21.73-18.97-4.35-2.91-13.12-6.42-18.25-8.03-2.04-.64-4.45-.77-6-2-2.94.07-5.35-.96-7-1-7.59-.16-12.83,2.61-17.68,2.75-1.91.06-5.93-2.41-8.32-2.75-2.35,1.93-6.81.85-10,1-14.19.66-27.3,6.72-37.65,16.35-4.4,4.09-7.75,11.12-14.34,12.65-2.05-11.34-5.29-23.54-6.01-35-.06-.99.04-2,0-3-7.43-6.58-8.38-16.94-9-26-.77-1.25-1.34-2.35-3-2,0,13.02-1.39,25.92-1,39,.58,19.37,3.44,49.27,17.96,63.54,5.4,5.31,13.12,7.91,19.04,12.46,2.65-4.16,15.25,2.01,16,6ZM176.43,224.93c5.16-2.02,12.05-.44,17.57-.93,5.31-1.21,7.7-1.34,13,0,5.76.55,13.22-1.17,18.57.93,12.18,4.78,11.93,33.17-1,31.06-2.99-.49-3.97-2.98-5.58-3.98-17.13-10.67-18.11-10.87-35,0-3.73,2.4-7.24,6.73-12.04,2.53-7.1-6.22-4.44-26.12,4.46-29.6Z"/><path class="cls-25" d="M284.96,172c-.17,1.85-.17,3.85.04,6,.26-1.66.11-3.82-.04-6Z"/><path class="cls-25" d="M148,281c5.94.02,10.74,3.9,16,6-.75-3.99-13.35-10.16-16-6Z"/><path class="cls-25" d="M237,287c5.41-2.16,9.51-6.01,16-6-2.65-4.3-15.33,1.98-16,6Z"/><path class="cls-25" d="M112,166c-.91,1.38-1.87,2.87-2.05,4.55-.65,6.02-2.07,28.29-.33,32.16.36.81.86,1.56,1.39,2.29-.39-13.08.99-25.98,1-39Z"/><path class="cls-25" d="M291.05,169.68c-.18-1.72-1.14-3.25-2.05-4.68,0,13.38,1.42,26.83,1,40,.53-.74,1.02-1.5,1.39-2.31,1.78-3.99.32-26.8-.34-33Z"/><path class="cls-25" d="M198.45,299.04c-10.02-.41-24.57-8.1-34.45-12.04l2.02,2.11c-.04.32-.07.65-.11.97,25.7,14.02,43.08,13.87,69.2-.07-.03-.25-.05-.51-.08-.76l1.98-2.25c-11.91,4.75-25.9,12.55-38.55,12.04Z"/><path class="cls-25" d="M165.91,290.08c.04-.32.07-.65.11-.97l-2.02-2.11.87,2.52c.35.19.69.37,1.03.56Z"/><path class="cls-25" d="M235.1,290.01c.22-.12.44-.23.66-.35l1.24-2.66-1.98,2.25c.03.25.05.51.08.76Z"/><path class="cls-25" d="M131.54,229.35c-2.16-9.63-3.91-19.33-5.26-29.1l-2.28-3.26c.73,11.46,3.96,23.66,6.01,35,6.58-1.53,9.94-8.56,14.34-12.65,10.35-9.63,23.46-15.69,37.65-16.35l-2.92-1.8c-21.11,2.36-33.96,14.3-47.53,28.15Z"/><path class="cls-25" d="M211.58,200.5l-11.2,2.27c-4.24-2.25-7.03-2.5-8.38-.76,2.4.34,6.42,2.81,8.32,2.75,4.84-.14,10.08-2.92,17.68-2.75-1.19-2.03-3.33-2.53-6.42-1.5Z"/><path class="cls-13" d="M236.2,204.28c-1.6-.17-4.16-1.15-5.2.72,13.5,1.48,24.85,8.44,34.05,20.89l4.48,3.62,4.82-30.97,2.65-3.55-8.77,5.73c-10.25,4.62-21.03,4.68-32.04,3.55Z"/><path class="cls-13" d="M269.53,229.52l-4.48-3.62c-9.2-12.45-20.56-19.42-34.05-20.89,5.13,1.61,13.9,5.12,18.25,8.03,3.11,2.08,19.04,20.93,21.73,18.97,3-12.12,3.71-24.77,6.01-37l-2.65,3.55-4.82,30.97Z"/><path class="cls-21" d="M220.56,200.39c-.17-.13-.33-.26-.49-.39-.01.12-.04.25-.08.37.18,0,.37,0,.57.02Z"/><path class="cls-21" d="M225.42,202.33c-.45-.07-.87-.16-1.28-.27.36.31.66.63.86.94-.04-.39.14-.58.42-.67Z"/><path class="cls-21" d="M219.99,200.37c.04-.12.07-.24.08-.37-.91-.81-1.6-1.81-2.07-3,.36,1.22-.25,3.55,0,5,.25-1.15,1.03-1.6,1.99-1.63Z"/><path class="cls-21" d="M224.14,202.06c-1.42-.36-2.61-.92-3.58-1.67-.19-.02-.38-.03-.57-.02-.23.66-.87,1.25-1.99,1.63,1.65.04,4.06,1.07,7,1-.2-.31-.5-.63-.86-.94Z"/><path class="cls-21" d="M219.99,200.37c-.96.03-1.74.48-1.99,1.63,1.12-.38,1.76-.97,1.99-1.63Z"/><path class="cls-33" d="M183,202c.43.36.1.7-1,1,1.4-.17,2.82-.33,4.25-.47-1.13-.04-2.23-.2-3.25-.53Z"/><path class="cls-33" d="M183,202c-.45.04-.9.53-1,1,1.1-.3,1.43-.64,1-1Z"/><path class="cls-33" d="M183,202c1.02.33,2.12.48,3.25.53,1.89-.2,3.8-.37,5.75-.53-2.23-.32-6.67-.22-9,0Z"/><path class="cls-33" d="M186.25,202.53c-1.43.15-2.85.3-4.25.47,3.19-.15,7.65.93,10-1-1.83.33-3.83.6-5.75.53Z"/><path class="cls-33" d="M192,202c-1.95.15-3.86.33-5.75.53,1.92.07,3.92-.19,5.75-.53Z"/><path class="cls-23" d="M218,231c6.87.81,11.26,13.56,10.88,19.88-1.55.73-3.19.98-4.88,1.12-1.65.13-3.35-.09-5,0,1.61,1,2.59,3.5,5.58,3.98,12.93,2.11,13.18-26.28,1-31.06-5.35-2.1-12.82-.38-18.57-.93,3.13.79,10.11,3.24,11,7Z"/><path class="cls-4" d="M224,252c-2.41-7.7-8.23-12.19-16.52-12.08-4.88.07-9.08.06-13.96,0-8.08-.11-14.36,4.2-16.52,12.08,2.29.22,4.69-.15,7,0,16.89-10.87,17.87-10.67,35,0,.92-3.05,3.59-2.53,5,0Z"/><path class="cls-4" d="M224,252c-1.41-2.53-4.08-3.05-5,0,1.65-.09,3.35.13,5,0Z"/><path class="cls-3" d="M171.96,254.53c4.79,4.2,8.31-.13,12.04-2.53-3.81,2.11-6.14,2.11-7,0-1.68-.16-3.34-.34-4.86-1.14-1.1-6.22,2.46-14.07,6.84-18.4,3.22-3.18,2.26-1.38,5.02-1.46-1.71-2.03-.27-2.2,1.27-3.23,2.66-1.79,5.67-3.07,8.73-3.77-5.52.49-12.42-1.09-17.57.93-8.91,3.48-11.56,23.39-4.46,29.6Z"/><path class="cls-3" d="M177,252c.86,2.11,3.19,2.11,7,0-2.31-.15-4.71.22-7,0Z"/><path class="cls-32" d="M184,231c9.73-.3,24.76-1.09,34,0l-10.2-4.7-.8-2.3c-5.3-1.34-7.69-1.21-13,0l-1.09,2.35c-3.38.98-6.35,2.53-8.91,4.65Z"/><path class="cls-32" d="M218,231c-.89-3.76-7.87-6.21-11-7l.8,2.3,10.2,4.7Z"/><path class="cls-32" d="M184,231c2.56-2.12,5.53-3.67,8.91-4.65l1.09-2.35c-3.07.7-6.08,1.98-8.73,3.77-1.54,1.03-2.97,1.21-1.27,3.23Z"/><path class="cls-8" d="M182.81,232.92c-4.87.38-9.31,11.25-8.84,16.52.98.02,1.72.25,2.22.67-.7-4.48,6.03-9.67,10.14-11.07,5.92-2.02,24.44-1.95,30.09.75,3.31,1.58,8.87,6.43,8.38,10.33.46-.35,1.1-.48,1.95-.57-.26-5.92-2.48-12.86-7.74-16.22l-1.02-2.33-2.03,1.81c-9.98-.48-19.96-.44-29.96.13l-2.01-1.94c-.08.86-.44,1.87-1.19,1.92Z"/><path class="cls-8" d="M226.76,249.54c-.85.1-1.49.22-1.95.57-.08.66-.33,1.3-.81,1.88,1.69-.14,3.34-.39,4.88-1.12.38-6.32-4.01-19.07-10.88-19.88l1.02,2.33c5.26,3.36,7.48,10.3,7.74,16.22Z"/><path class="cls-8" d="M193.52,239.92c4.88.06,9.08.07,13.96,0,8.29-.11,14.11,4.38,16.52,12.08.09-.98.36-1.54.81-1.88.48-3.89-5.07-8.75-8.38-10.33-5.65-2.7-24.17-2.77-30.09-.75-4.11,1.4-10.84,6.58-10.14,11.07.51.43.78,1.06.8,1.89,2.16-7.88,8.44-12.18,16.52-12.08Z"/><path class="cls-8" d="M224,252c.47-.59.73-1.22.81-1.88-.45.35-.72.91-.81,1.88Z"/><path class="cls-8" d="M173.98,249.44c-.47-5.26,3.97-16.14,8.84-16.52.75-.06,1.11-1.06,1.19-1.92-2.76.08-1.8-1.72-5.02,1.46-4.38,4.33-7.93,12.18-6.84,18.4,1.52.8,3.17.98,4.86,1.14-.44-.61-.7-1.24-.8-1.89-.5-.42-1.24-.65-2.22-.67Z"/><path class="cls-8" d="M176.2,250.11c.1.65.36,1.28.8,1.89-.03-.83-.29-1.46-.8-1.89Z"/><path class="cls-8" d="M215.97,232.81l2.03-1.81c-9.24-1.09-24.27-.3-34,0l2.01,1.94c9.99-.57,19.98-.61,29.96-.13Z"/><path class="cls-30" d="M114.53,163.96c.83,1.25.38,2.7.47,4.04l2.11,1.46c.56,7.73,1.59,16.05,7.09,21.96l-.2,2.58c16.56,14.67,57.28,9.57,66-13,1.1-5.19.52-9.17,1-14,.61-6.21,7.13-5.55,12.5-4.99,9.08.95,6.52,6.25,6.36,12.89l.14,3.11c.45,2.42,1.24,5.71,2,8,12.02,20.98,49.19,20.69,65,5,.2-3.98,4.68-10.79,8-13-.23-2.28-.25-4.37-.06-6.29-.19-2.66-.36-5.31.2-7.09.57-1.78,2-1.2,2.86-1.62-1.38-1.38-.78-1.96,1-1,3.57-.75,6.75,1.17,10-3-.39-2.47.69-5.53-.49-8.01-.35-.73-8.4-5.57-9.51-5.99-1.76,2.27-8.17,1.12-8-2-4.03-.98-11.75-3-15.5-3h-32c-10.3,0-18.91,5.89-27.46,7.54-12.57,2.43-17.73-4.43-28.6-6.49-9.05-1.71-22.07-1.31-31.44-1.06-2.98.08-6.04-.21-9,0-5.49.39-11.62,1.69-17,3-1.33,3.29-5.97,4.89-9,3-8.99,3.58-10.05,3.45-9,14,3.25,2.34,6.38,1.56,10,3,.71.28,1.84-.07,2.53.96ZM216,163c1.51-7.74,6.91-12.4,15-13,1.04-1.66,3.8-1,5.49-1.02,8.33-.1,19.7-.91,27.51,1.02,13.95,3.44,16.6,11.7,15,25.5-2.49,21.47-38.89,25-54.14,16.14-9.42-5.47-10.75-18.91-8.86-28.64ZM122,163c1.05-5.36,3.35-9.93,9.01-11.6,1.78-.52,2.8.47,3.51.41.58-.05.46-1.56,1.24-1.72,10.07-2.07,38.28-2.98,45.69,4.97,1.84,1.97,2.02,4.5,2.55,6.95,2.41,11.01,1.92,19.66-7.5,27-11.1,8.65-38.86,10.37-49.04.04-6.22-6.31-7.08-17.77-5.46-26.04Z"/><path class="cls-30" d="M286.02,166.69s0,.06-.02.09c.03-.07.05-.15.08-.22-.03.04-.06.09-.07.13Z"/><path class="cls-30" d="M289,145c-2.06-.79-5.57-1.41-8-2-.17,3.12,6.24,4.27,8,2Z"/><path class="cls-30" d="M120,143c-3.1.76-6.03,1.82-9,3,3.03,1.89,7.67.29,9-3Z"/><path class="cls-30" d="M120,143c5.38-1.31,11.51-2.61,17-3-3.9-3.02-14.23-1.03-17,3Z"/><path class="cls-30" d="M221.58,140.16c-8.91,4.72-17.79,6.4-26.62,5.04-14.81-6.79-33.2-10.49-48.96-5.2,9.37-.25,22.39-.65,31.44,1.06,10.87,2.05,16.03,8.91,28.6,6.49,8.54-1.65,17.16-7.54,27.46-7.54-2.88-2.28-6.85-2.23-11.92.16Z"/><path class="cls-30" d="M234.4,138c-.55.04-.81,1.22-.9,2h32l-1.45-2c-8.67-.56-20.99-.57-29.65,0Z"/><path class="cls-30" d="M265.5,140c3.75,0,11.47,2.02,15.5,3-1.38-3.65-13.2-6.43-15.5-3Z"/><path class="cls-30" d="M191,167c-.48,4.83.1,8.81-1,14,3.73-1.41,3.95-11.75,1-14Z"/><path class="cls-30" d="M212,186c-.76-2.29-1.55-5.58-2-8-2.93,1.22-1.17,8.35,2,8Z"/><path class="cls-30" d="M140.13,137.94c-.24.38-.47.77-.69,1.18l-2.44.89c2.96-.21,6.02.08,9,0-1.22-1.95-3.7-2.59-5.87-2.06Z"/><path class="cls-30" d="M140.13,137.94c-1.25.31-2.39,1-3.13,2.06l2.44-.89c.22-.4.45-.79.69-1.18Z"/><path class="cls-30" d="M286.09,166.56c-.03.07-.05.15-.08.22-.03.13-.04.25-.06.38.08-.24.16-.48.25-.72-.04.04-.08.08-.11.11Z"/><path class="cls-30" d="M284.96,172c0-.1-.01-.19-.02-.29-.18,1.92-.17,4.01.06,6.29-.21-2.15-.21-4.15-.04-6Z"/><path class="cls-30" d="M288,163c.34-.16.69-.93,1-1-1.78-.96-2.38-.38-1,1Z"/><path class="cls-30" d="M117.11,169.46l-2.11-1.46c.62,9.06,1.57,19.42,9,26l.2-2.58c-5.51-5.91-6.53-14.23-7.09-21.96Z"/><path class="cls-30" d="M277,191c3.83-3.8,6.55-7.7,8-13-3.32,2.21-7.8,9.02-8,13Z"/><path class="cls-20" d="M292.94,163.6c-.64.03-1.27-.05-1.86-.23-.02.13-.05.26-.12.4.69,0,1.35-.06,1.98-.16Z"/><path class="cls-20" d="M299,160c-.05-.33.05-.67,0-1-.18.79-.54,1.5-1.04,2.11.36-.34.71-.71,1.04-1.11Z"/><path class="cls-20" d="M297.96,161.11c-1.2,1.49-3.15,2.41-5.02,2.48-.63.11-1.29.16-1.98.16-.27.5-.93.98-1.96,1.24,4.47.41,9.03.31,10-5-.33.41-.67.77-1.04,1.11Z"/><path class="cls-20" d="M290.96,163.76c.07-.13.11-.26.12-.4-.8-.25-1.52-.68-2.08-1.36v3l.94-1.26c.35.02.68.02,1.02.02Z"/><path class="cls-20" d="M290.96,163.76c-.33,0-.67,0-1.02-.02l-.94,1.26c1.03-.26,1.69-.74,1.96-1.24Z"/><path class="cls-20" d="M289,162c1.5.03,2.17.67,2.08,1.36.59.18,1.22.26,1.86.23,1.95-.33,3.62-1.16,5.02-2.48.49-.62.86-1.33,1.04-2.11-3.25,4.17-6.43,2.25-10,3Z"/><path class="cls-20" d="M297.96,161.11c-1.4,1.33-3.08,2.15-5.02,2.48,1.88-.08,3.83-.99,5.02-2.48Z"/><path class="cls-20" d="M291.08,163.36c.09-.69-.59-1.33-2.08-1.36.56.68,1.28,1.12,2.08,1.36Z"/><path class="cls-6" d="M276.42,192.92c-.52.88-1.36,1.72-2.34,2.49.56-.39,1.11-.77,1.65-1.18l1.26.77c-.45-.61-.64-1.3-.58-2.08Z"/><path class="cls-6" d="M218,197c3.15.56,6.45,4.75,9.99,5.01.03.2.03.36,0,.49.96-.5,1.97.01,2.56,1.15-.09-.88.36-1.47,1.56-1.49.58.12,1.16.21,1.74.32-6.69-1.58-12.78-4.62-17.18-9.37.71.87,1.45,1.72,2.24,2.54l-.92,1.34Z"/><path class="cls-6" d="M227.26,203.09c-.67.11-1.64-.1-2.26-.09l1.94.51c.11-.16.21-.3.32-.42Z"/><path class="cls-6" d="M218.92,195.66c-.79-.82-1.53-1.67-2.24-2.54-1.9-2.05-3.5-4.41-4.67-7.12,1.73,5.21,5.14,8.1,6,11l.92-1.34Z"/><path class="cls-6" d="M277,195c.13-.71,2.52-2.93,0-4,0,.66-.21,1.3-.58,1.92-.06.78.13,1.47.58,2.08Z"/><path class="cls-6" d="M227.99,202.51c-.08.36-.36.52-.73.58-.11.13-.22.26-.32.42l-1.94-.51c1.55,1.23,3.96,1.36,6,2-.26-.49-.4-.94-.44-1.34-.6-1.14-1.6-1.65-2.56-1.15Z"/><path class="cls-6" d="M274.08,195.42c-1.91,1.51-4.34,2.76-6.04,3.59-9.39,4.62-22.66,6.2-34.19,3.48-.58-.1-1.16-.2-1.74-.32-1.2.02-1.65.61-1.56,1.49.2.38.35.83.44,1.34,1.04-1.87,3.59-.88,5.2-.72,11,1.14,21.79,1.07,32.04-3.55l8.77-5.73-1.26-.77c-.54.42-1.1.8-1.65,1.18Z"/><path class="cls-6" d="M231,205c-.09-.51-.24-.96-.44-1.34.04.4.19.85.44,1.34Z"/><path class="cls-6" d="M227.26,203.09c.23-.27.48-.46.73-.58.03-.14.03-.3,0-.49-3.55-.26-6.84-4.45-9.99-5.01,1.43.85,2.19,1.99,2.07,3,.15.14.32.27.49.39,1.24.15,2.63.85,3.58,1.67.41.1.83.2,1.28.27.68-.22,1.94.24,1.85.21-.65-.04-1.26-.11-1.85-.21-.27.09-.46.28-.42.67.62-.01,1.59.2,2.26.09Z"/><path class="cls-6" d="M225.42,202.33c.59.1,1.2.17,1.85.21.09.03-1.17-.43-1.85-.21Z"/><path class="cls-6" d="M220.07,200c.12-1.02-.64-2.15-2.07-3,.47,1.2,1.16,2.19,2.07,3Z"/><path class="cls-6" d="M227.26,203.09c.37-.06.65-.23.73-.58-.25.13-.49.32-.73.58Z"/><path class="cls-6" d="M220.56,200.39c.98.74,2.17,1.31,3.58,1.67-.95-.81-2.35-1.52-3.58-1.67Z"/><path class="cls-6" d="M212,186c1.3,2.54,2.87,4.91,4.67,7.12,4.4,4.75,10.49,7.79,17.18,9.37,13.95,2.49,28.52,1.07,40.23-7.07.98-.77,1.82-1.61,2.34-2.49.05-.59.23-1.23.58-1.92-15.81,15.69-52.98,15.98-65-5Z"/><path class="cls-6" d="M212,186c1.18,2.71,2.77,5.07,4.67,7.12-1.81-2.21-3.37-4.58-4.67-7.12Z"/><path class="cls-6" d="M277,191c-.35.69-.53,1.33-.58,1.92.37-.62.58-1.27.58-1.92Z"/><path class="cls-6" d="M268.05,199.01c1.7-.84,4.13-2.09,6.04-3.59-11.7,8.14-26.28,9.56-40.23,7.07,11.53,2.73,24.8,1.14,34.19-3.48Z"/><path class="cls-6" d="M175.35,197.95c-.47.26-.95.52-1.44.77.48-.25.97-.5,1.44-.77Z"/><path class="cls-6" d="M125.9,196.91c-.29-.27-.56-.55-.8-.84-.04.46-.4.77-1.1.94l1.38-.41c.17.11.35.21.52.32Z"/><path class="cls-6" d="M173.84,198.75c-6.71,3.36-14.6,4.99-22.33,5.05,7.82.02,15.65-1.63,22.33-5.05Z"/><path class="cls-6" d="M190,181c-2.53,7.61-7.91,13.2-14.65,16.95-.47.27-.95.52-1.44.77-.03.01-.05.03-.08.04-6.67,3.42-14.51,5.07-22.33,5.05-6.56.05-13-1.03-18.51-3.16-2.27-.88-5.17-2.01-7.09-3.74-.17-.11-.35-.21-.52-.32l-1.38.41c18.51,14.51,60.45,10.26,66-16Z"/><path class="cls-6" d="M125.1,196.06c-.51-.62-.9-1.3-1.1-2.06.04,1-.06,2.01,0,3,.7-.17,1.06-.48,1.1-.94Z"/><path class="cls-6" d="M125.1,196.06c.24.3.51.58.8.84,7.17,4.52,16.36,6.88,25.6,6.9,7.73-.06,15.62-1.69,22.33-5.05.03-.01.05-.03.08-.04.49-.24.96-.5,1.44-.77,6.63-3.77,11.94-9.38,14.65-16.95-8.72,22.57-49.44,27.67-66,13,.78.87,1.14,1.55,1.1,2.06Z"/><path class="cls-6" d="M173.92,198.71s-.05.03-.08.04c.03-.01.05-.03.08-.04Z"/><path class="cls-6" d="M175.35,197.95c6.74-3.75,12.12-9.34,14.65-16.95-2.71,7.57-8.02,13.18-14.65,16.95Z"/><path class="cls-6" d="M133,200.65c5.51,2.13,11.95,3.21,18.51,3.16-9.24-.02-18.43-2.38-25.6-6.9,1.92,1.74,4.82,2.86,7.09,3.74Z"/><path class="cls-6" d="M124,194c.2.76.59,1.44,1.1,2.06.04-.51-.32-1.19-1.1-2.06Z"/><path class="cls-18" d="M288,163c-.73,1.05-1.32,2.2-1.8,3.45.66-.56,2.82-1.11,1.8-3.45Z"/><path class="cls-18" d="M285,178c1.23-4.51.33-7.42.95-10.84-.5,1.48-.83,3.09-.99,4.84.16,2.18.3,4.34.04,6Z"/><path class="cls-18" d="M285.14,164.62c-.57,1.78-.39,4.43-.2,7.09.17-1.8.54-3.44,1.07-4.92,0-.03,0-.06.02-.09,0-.05.03-.09.07-.13.5-1.31,1.12-2.51,1.91-3.56-.86.42-2.29-.16-2.86,1.62Z"/><path class="cls-18" d="M286.2,166.45c.48-1.24,1.07-2.4,1.8-3.45-.79,1.05-1.41,2.25-1.91,3.56.03-.04.07-.08.11-.11Z"/><path class="cls-18" d="M284.94,171.71c0,.1.01.19.02.29.16-1.74.49-3.36.99-4.84.02-.13.04-.25.06-.38-.54,1.48-.9,3.12-1.07,4.92Z"/><path class="cls-14" d="M113.01,164.56c-.33-.54-.67-1.06-1.01-1.56v2c.12.03.22.05.31.09.2-.36.44-.52.69-.52Z"/><path class="cls-14" d="M112,165c0,.33,0,.67,0,1,.08-.39.19-.69.31-.91-.09-.03-.19-.06-.31-.09Z"/><path class="cls-14" d="M112.31,165.09c.55.2.42.5-.31.91,1.66-.35,2.23.75,3,2-.66-1.23-1.32-2.37-1.99-3.44-.25,0-.5.16-.69.52Z"/><path class="cls-14" d="M112.31,165.09c-.12.22-.23.53-.31.91.74-.41.86-.72.31-.91Z"/><path class="cls-14" d="M114.53,163.96c-.69-1.03-1.81-.68-2.53-.96.34.5.67,1.02,1.01,1.56.84-.02,1.84,1.65,1.99,3.44-.09-1.34.36-2.8-.47-4.04Z"/><path class="cls-14" d="M113.01,164.56c.67,1.07,1.33,2.21,1.99,3.44-.15-1.79-1.15-3.46-1.99-3.44Z"/><path class="cls-19" d="M242,152c.95-2.33,4.03-2.31,5,0h18c-1.69-.39-2.56-.7-1-2-7.81-1.93-19.19-1.12-27.51-1.02-1.69.02-4.44-.64-5.49,1.02,3.39-.25,7.99.32,11,2Z"/><path class="cls-12" d="M209.39,165.87l.47,9.21c0-.06,0-.13,0-.19l-.41-8.92s-.04-.07-.06-.11Z"/><path class="cls-12" d="M208.89,166.11c-.33,4.27.38,7.97,1.11,11.89-.13-.99-.16-1.97-.15-2.92l-.47-9.21c-1.67-3.12-16.77-4.23-18.39,1.13,5.29-3.33,12.1-2.2,17.89-.89Z"/><path class="cls-12" d="M209.38,165.77v.09s.05.07.07.11l.41,8.92c.16-6.63,2.72-11.94-6.36-12.89-5.37-.56-11.89-1.21-12.5,4.99,1.28-5.43,16.95-4.2,18.38-1.23Z"/><path class="cls-12" d="M209.39,165.87v-.09c-1.43-2.97-17.11-4.21-18.39,1.23,1.61-5.37,16.72-4.25,18.39-1.13Z"/><path class="cls-17" d="M107.67,163.69c.79.15,1.63.21,2.52.18.09-.1.21-.2.38-.3-.88.22-1.89.25-2.9.12Z"/><path class="cls-17" d="M112,165c-1.67-.2-2.24-.64-1.81-1.12-.89.03-1.73-.04-2.52-.18-2.4-.32-4.83-1.6-5.67-3.69.6,6.03,4.77,4.95,10,5Z"/><path class="cls-17" d="M107.67,163.69c1.01.14,2.02.1,2.9-.12.33-.2.8-.39,1.43-.58-3.62-1.44-6.75-.66-10-3,1.39,2.03,3.29,3.25,5.67,3.69Z"/><path class="cls-17" d="M107.67,163.69c-2.38-.45-4.28-1.66-5.67-3.69.84,2.1,3.27,3.37,5.67,3.69Z"/><path class="cls-17" d="M110.57,163.58c-.17.1-.3.2-.38.3.3,0,.6,0,.91-.04l.9,1.16v-2c-.41.26-.9.45-1.43.58Z"/><path class="cls-17" d="M110.19,163.88c-.43.49.14.92,1.81,1.12l-.9-1.16c-.31.03-.61.03-.91.04Z"/><path class="cls-17" d="M110.57,163.58c.53-.13,1.02-.32,1.43-.58-.62.19-1.1.38-1.43.58Z"/><path class="cls-13" d="M176.5,189c9.42-7.34,9.91-15.99,7.5-27-7.21-12.17-28.76-11.04-41.54-10.04-8.79.69-16.04,2.94-20.46,11.04-1.62,8.27-.76,19.73,5.46,26.04,10.18,10.33,37.94,8.61,49.04-.04ZM150.47,156c1.19,1.85,2.56,2.99,4.12,4.42,1.54,1.41,2.71,3.47,4.93,4.39l9.12-8.74c10.87,5.14-2.94,9.98-3.56,13.57-.53,3.06,13.83,9.45,4.91,13.92-2.7,1.35-7.96-7.14-10.47-8.37-3.51-.02-9.08,14.49-13.04,5.78-1.98-4.35,7.95-8.51,7.46-11.34-.63-3.59-14.85-8.7-3.46-13.64Z"/><path class="cls-16" d="M127.94,154.52c9.25-6.4,52.17-8.44,56.06,7.48-.54-2.45-.72-4.98-2.55-6.95-7.41-7.94-35.61-7.04-45.69-4.97-.78.16-.66,1.68-1.24,1.72-.71.06-1.73-.93-3.51-.41-5.66,1.67-7.96,6.24-9.01,11.6,1.17-3.31,3.01-6.45,5.94-8.48Z"/><path class="cls-16" d="M142.46,151.96c12.78-1.01,34.33-2.13,41.54,10.04-3.89-15.92-46.81-13.88-56.06-7.48-2.93,2.03-4.77,5.17-5.94,8.48,4.42-8.1,11.67-10.34,20.46-11.04Z"/><path class="cls-26" d="M153.93,169.64c.49,2.82-9.44,6.98-7.46,11.34,3.96,8.71,9.53-5.81,13.04-5.78,2.52,1.23,7.78,9.72,10.47,8.37,8.92-4.47-5.45-10.86-4.91-13.92.63-3.58,14.43-8.43,3.56-13.57l-9.12,8.74c-2.22-.92-3.39-2.98-4.93-4.39-1.56-1.43-2.93-2.56-4.12-4.42-11.39,4.94,2.83,10.05,3.46,13.64Z"/><path class="cls-13" d="M224.86,191.64c15.26,8.86,51.66,5.32,54.14-16.14,1.6-13.8-1.05-22.06-15-25.5.39.59.58,1.51,1,2,2.38,2.8,4.52,4.72,3.99,9-6.43-5.05-14.58-6.13-21.99-9-1.66.05-3.34-.07-5,0-10.55.46-20.17.76-26,11-1.9,9.73-.56,23.17,8.86,28.64ZM232.47,156c1.11,1.82,2.65,3,4.1,4.44.92.91,3.86,4.96,4.88,4.53l9.18-8.9c10.87,5.14-2.94,9.98-3.56,13.57-.53,3.06,13.83,9.45,4.91,13.92-2.65,1.33-8.12-7.17-10.53-8.53l-9.1,8.89c-11.53-4.57,4.17-10.86,3.57-14.28-.63-3.59-14.85-8.7-3.46-13.64Z"/><path class="cls-13" d="M265,152c-.42-.49-.61-1.41-1-2-1.56,1.3-.69,1.61,1,2Z"/><path class="cls-13" d="M242,152c1.66-.07,3.34.05,5,0-.97-2.31-4.05-2.33-5,0Z"/><path class="cls-22" d="M232.82,151.27c-.4,0-.8.02-1.21.03l-.62-1.3c-8.09.6-13.49,5.26-15,13,2.7-7.88,9.44-11.25,16.82-11.73Z"/><path class="cls-22" d="M242,152c-.51-.12-1.03-.21-1.54-.29.52.09,1.03.18,1.54.29Z"/><path class="cls-22" d="M232.82,151.27c2.52-.17,5.1,0,7.63.44.52.08,1.03.18,1.54.29-3.01-1.68-7.61-2.25-11-2l.62,1.3c.4-.01.8-.02,1.21-.03Z"/><path class="cls-22" d="M242,152c-.51-.11-1.02-.2-1.54-.29-2.52-.41-5.08-.49-7.63-.44-7.38.49-14.13,3.85-16.82,11.73,5.83-10.24,15.45-10.54,26-11Z"/><path class="cls-22" d="M232.82,151.27c2.55-.05,5.11.02,7.63.44-2.53-.44-5.12-.61-7.63-.44Z"/><path class="cls-26" d="M235.93,169.64c.6,3.43-15.1,9.71-3.57,14.28l9.1-8.89c2.4,1.36,7.88,9.85,10.53,8.53,8.92-4.47-5.45-10.86-4.91-13.92.63-3.58,14.43-8.43,3.56-13.57l-9.18,8.9c-1.03.43-3.96-3.61-4.88-4.53-1.45-1.44-2.99-2.62-4.1-4.44-11.39,4.94,2.83,10.05,3.46,13.64Z"/><path class="cls-15" d="M256.98,153.56c3.13.78,6.15,1.83,9.07,3.16-1.41-1.6-1.76-3.17-1.05-4.72l-.89,2c-2.38-.04-4.76-.2-7.13-.44Z"/><path class="cls-15" d="M256.98,153.56c2.37.24,4.74.4,7.13.44l.89-2h-18c3.44.23,6.76.76,9.98,1.56Z"/><path class="cls-15" d="M266.05,156.72c-2.92-1.32-5.94-2.37-9.07-3.16-3.34-.33-6.67-.84-9.98-1.56,7.41,2.87,15.56,3.95,21.99,9,.53-4.28-1.61-6.2-3.99-9-.71,1.55-.36,3.13,1.05,4.72Z"/><path class="cls-15" d="M247,152c3.31.73,6.64,1.23,9.98,1.56-3.22-.81-6.54-1.33-9.98-1.56Z"/><path class="cls-29" d="M153.53,399.79h-9.51c0,.07-.01.14-.02.21h10.12c-.16-.02-.31-.03-.46-.08-.05-.02-.09-.07-.14-.13Z"/><path class="cls-29" d="M246.02,399.79c0,.07-.01.14-.02.21h9.86c0-.07-.01-.14-.02-.21h-9.81Z"/><path class="cls-29" d="M255.84,399.79c0,.07.01.14.02.21h.14c0-.07,0-.14,0-.21h-.17Z"/><path class="cls-29" d="M155,399.79v.21h91v-.21h-91Z"/><path class="cls-29" d="M153.53,399.79c.04.05.09.11.14.13.14.05.3.06.46.08h.88v-.21h-1.47Z"/><path class="cls-29" d="M246,399.79v.21c0-.07.01-.14.02-.21h-.02Z"/><path class="cls-29" d="M144,399.79v.21c0-.07.01-.14.02-.21h-.02Z"/></svg>