<?xml version="1.0" encoding="UTF-8" standalone="no"?>
<!-- Created with Inkscape (http://www.inkscape.org/) -->

<svg
   xmlns:dc="http://purl.org/dc/elements/1.1/"
   xmlns:cc="http://creativecommons.org/ns#"
   xmlns:rdf="http://www.w3.org/1999/02/22-rdf-syntax-ns#"
   xmlns:svg="http://www.w3.org/2000/svg"
   xmlns="http://www.w3.org/2000/svg"
   xmlns:sodipodi="http://sodipodi.sourceforge.net/DTD/sodipodi-0.dtd"
   xmlns:inkscape="http://www.inkscape.org/namespaces/inkscape"
   version="1.1"
   width="1000"
   height="299.578"
   id="svg4996"
   sodipodi:docname="Blue Sky Studios (2013).svg"
   inkscape:version="0.92.2 (5c3e80d, 2017-08-06)">
  <sodipodi:namedview
     pagecolor="#ffffff"
     bordercolor="#666666"
     borderopacity="1"
     objecttolerance="10"
     gridtolerance="10"
     guidetolerance="10"
     inkscape:pageopacity="0"
     inkscape:pageshadow="2"
     inkscape:window-width="1024"
     inkscape:window-height="706"
     id="namedview906"
     showgrid="false"
     inkscape:zoom="0.3547319"
     inkscape:cx="561.51916"
     inkscape:cy="3.0758698"
     inkscape:window-x="-8"
     inkscape:window-y="-8"
     inkscape:window-maximized="1"
     inkscape:current-layer="svg4996" />
  <defs
     id="defs4998" />
  <metadata
     id="metadata5001">
    <rdf:RDF>
      <cc:Work
         rdf:about="">
        <dc:format>image/svg+xml</dc:format>
        <dc:type
           rdf:resource="http://purl.org/dc/dcmitype/StillImage" />
        <dc:title></dc:title>
      </cc:Work>
    </rdf:RDF>
  </metadata>
  <g
     id="g1625">
    <path
       inkscape:connector-curvature="0"
       style="fill:#231f20;fill-opacity:1;fill-rule:nonzero;stroke:none;stroke-width:24.18123817"
       id="path3155"
       d="m 571.82586,272.63357 h -4.26194 v 26.69004 h 4.26194 z" />
    <path
       inkscape:connector-curvature="0"
       style="fill:#231f20;fill-opacity:1;fill-rule:nonzero;stroke:none;stroke-width:24.18123817"
       id="path3159"
       d="m 637.52024,278.90255 c 1.72292,-1.78457 3.89923,-2.78084 6.74052,-2.78084 2.75062,0 5.01761,0.99627 6.64984,2.78084 1.66246,1.90307 2.53903,4.26195 2.53903,7.01256 0,2.90175 -0.87657,5.13852 -2.53903,7.04279 -1.63223,1.75314 -3.89922,2.72039 -6.64984,2.84129 -2.84129,-0.1209 -5.0176,-1.08815 -6.74052,-2.84129 -1.78336,-1.90548 -2.72039,-4.14104 -2.72039,-7.04279 0,-2.75061 0.93703,-5.10828 2.72039,-7.01256 m 16.41302,-2.78084 c -2.53903,-2.47857 -5.77327,-3.77832 -9.6725,-3.77832 -3.95967,0 -7.16369,1.29854 -9.76317,3.77832 -2.65994,2.53903 -3.98991,5.92441 -4.11081,9.7934 0.1209,4.02013 1.45087,7.2846 4.11081,9.76318 2.59948,2.53903 5.8035,3.71786 9.76317,3.89922 3.89923,-0.16927 7.13347,-1.35898 9.6725,-3.89922 2.65993,-2.47858 4.02013,-5.74305 4.02013,-9.76318 0,-3.86899 -1.3602,-7.25437 -4.02013,-9.7934" />
    <path
       inkscape:connector-curvature="0"
       style="fill:#231f20;fill-opacity:1;fill-rule:nonzero;stroke:none;stroke-width:24.18123817"
       id="path3163"
       d="m 723.53593,272.34944 c -2.17631,0 -4.14104,0.75445 -5.56169,1.99495 -1.36019,1.18005 -1.99495,2.8413 -2.11585,5.01761 0.1209,2.02639 0.66498,3.56673 1.96472,4.80602 1.17884,1.11717 2.69016,1.99495 4.7758,2.87152 l 1.87404,0.78589 c 1.17884,0.57551 2.08563,1.11717 3.02266,1.69269 0.75566,0.66498 1.17883,1.54276 1.29974,2.72039 -0.18136,2.29722 -1.78337,3.4156 -4.7758,3.5365 -2.78084,-0.1209 -4.80602,-1.23808 -6.04531,-3.59696 l -3.65741,1.78458 c 1.90427,3.59696 5.01761,5.44078 9.70272,5.59191 2.53903,0 4.7758,-0.694 6.37781,-1.75314 1.51132,-1.23808 2.47857,-3.20401 2.59948,-5.62214 -0.12091,-2.23676 -0.84634,-3.89922 -1.96473,-5.0176 -1.17883,-1.11959 -2.78084,-2.23677 -4.8967,-2.99243 l -1.78336,-0.9068 c -1.45088,-0.57551 -2.59949,-1.11959 -3.35515,-1.69268 -0.63476,-0.54408 -0.99748,-1.42186 -0.99748,-2.35768 0.12091,-2.02638 1.3602,-3.02265 3.65742,-3.0831 2.17631,0 3.71786,0.87536 4.59443,2.53903 l 3.26447,-2.11586 c -1.60201,-2.78084 -4.26195,-4.20149 -7.97981,-4.20149" />
    <path
       inkscape:connector-curvature="0"
       style="fill:#231f20;fill-opacity:1;fill-rule:nonzero;stroke:none;stroke-width:24.18123817"
       id="path3167"
       d="m 261.45967,281.55959 c -0.81611,-0.54408 -0.99747,-1.42186 -0.99747,-2.35767 0,-2.02397 1.17883,-3.02266 3.5365,-3.08311 2.11586,0 3.71787,0.9068 4.65489,2.53903 l 3.20402,-2.11586 c -1.60201,-2.78084 -4.26195,-4.20149 -7.85891,-4.20149 -2.35767,0 -4.26194,0.78589 -5.56168,2.02639 -1.36019,1.17763 -2.11586,2.81107 -2.23676,5.01761 0.1209,1.99495 0.78589,3.5365 2.02517,4.77579 1.11839,1.11717 2.62971,1.99495 4.65489,2.90175 l 2.05541,0.75445 c 1.05793,0.60454 2.08563,1.11718 3.02265,1.72171 0.69521,0.63597 1.05793,1.51133 1.17884,2.72039 -0.12091,2.29722 -1.78337,3.4156 -4.7758,3.5365 -2.78084,-0.1209 -4.80602,-1.23808 -6.04531,-3.59696 l -3.59696,1.75314 c 1.84382,3.59696 5.01761,5.44078 9.64227,5.62214 2.65994,0 4.7758,-0.72543 6.31735,-1.78457 1.69269,-1.23808 2.47858,-3.17379 2.59948,-5.59191 -0.1209,-2.26579 -0.66498,-3.89923 -1.78336,-5.01761 -1.3602,-1.14861 -2.90175,-2.26578 -5.01761,-3.02266 l -1.78336,-0.87536 c -1.45088,-0.60453 -2.59949,-1.11717 -3.23425,-1.7217" />
    <path
       inkscape:connector-curvature="0"
       style="fill:#231f20;fill-opacity:1;fill-rule:nonzero;stroke:none;stroke-width:24.18123817"
       id="path3171"
       d="m 329.7626,272.64276 v 3.83877 h 7.91936 v 22.85127 h 4.11081 v -22.85127 h 7.91936 v -3.83877 z" />
    <path
       inkscape:connector-curvature="0"
       style="fill:#231f20;fill-opacity:1;fill-rule:nonzero;stroke:none;stroke-width:24.18123817"
       id="path3175"
       d="m 427.82357,272.64276 h -4.26194 v 16.89664 c 0,4.17126 -1.9345,6.25689 -5.89418,6.25689 -4.02013,0 -6.01508,-2.08684 -6.07554,-6.25689 v -16.89664 h -4.20149 v 17.16868 c 0,3.26446 1.11839,5.68259 3.02266,7.4055 1.81359,1.51133 4.23171,2.35767 7.25437,2.35767 2.90175,0 5.38033,-0.84634 7.25437,-2.35767 1.78337,-1.7217 2.90175,-4.14104 2.90175,-7.4055 z" />
    <path
       inkscape:connector-curvature="0"
       style="fill:#231f20;fill-opacity:1;fill-rule:nonzero;stroke:none;stroke-width:24.18123817"
       id="path3179"
       d="m 491.46254,276.48129 h 3.23424 c 3.32492,0.0484 5.92441,0.87536 7.46596,2.53903 1.51133,1.78457 2.35767,4.14103 2.35767,6.92188 0,2.87152 -0.84634,5.10828 -2.35767,6.8312 -1.54155,1.78457 -4.14104,2.65993 -7.46596,2.72039 h -3.23424 z m 3.2947,-3.83877 h -7.31483 v 26.69004 h 7.31483 c 4.50375,-0.12091 7.9798,-1.47989 10.39793,-3.83877 2.47858,-2.29722 3.77832,-5.56169 3.77832,-9.55159 0,-3.89923 -1.29974,-7.1637 -3.77832,-9.46091 -2.53903,-2.59949 -5.89418,-3.83877 -10.39793,-3.83877" />
    <path
       inkscape:connector-curvature="0"
       style="fill:#1b284c;fill-opacity:1;fill-rule:nonzero;stroke:none;stroke-width:24.18123817"
       id="path3183"
       d="m 843.97058,82.369543 h 14.81101 l 60.75536,139.979137 -2.47857,7.91936 c -1.99496,5.83372 -4.26195,11.1536 -6.68007,16.1712 -2.47858,4.8967 -4.77579,8.67502 -7.01256,11.51632 -4.38285,5.28964 -9.15864,8.13094 -14.75055,8.13094 -7.2846,0 -13.23923,-8.73547 -18.07548,-26.38778 -2.23676,-8.04026 -4.14104,-14.56919 -5.56168,-19.5868 h -8.61457 v 49.05769 c 2.90175,1.99495 6.49871,3.71786 10.8211,5.0176 4.71534,1.23808 9.00751,1.9345 13.39036,1.9345 10.27703,0 18.40797,-2.90175 24.54396,-8.85638 3.14356,-2.93197 6.49871,-7.79845 10.03521,-14.32738 3.68764,-6.74052 7.10324,-14.65988 10.39794,-23.69761 L 987.24442,63.719763 H 1000 v -6.680067 h -44.10051 v 6.680067 h 23.21399 L 933.83411,186.62091 890.97287,82.369543 h 21.18881 V 75.56857 h -68.1911 z" />
    <path
       inkscape:connector-curvature="0"
       style="fill:#1b284c;fill-opacity:1;fill-rule:nonzero;stroke:none;stroke-width:24.18123817"
       id="path3187"
       d="m 854.59522,195.8371 -60.27174,-87.65699 46.39775,-47.42545 h 14.87146 v -6.8312 H 805.9607 v 6.8312 h 24.18124 l -58.36746,60.21128 54.43801,81.73259 h 41.77309 V 195.8371 Z M 769.23545,-7.0082078e-4 H 722.35407 V 6.8002724 h 17.28959 V 212.31057 h -17.28959 v 6.80097 h 64.11051 v -6.80097 h -17.22913 z" />
    <path
       inkscape:connector-curvature="0"
       style="fill:#1b284c;fill-opacity:1;fill-rule:nonzero;stroke:none;stroke-width:24.18123817"
       id="path3191"
       d="m 611.30778,33.840942 c 9.55159,-6.619614 21.73289,-9.853855 36.60435,-9.853855 22.30719,0 39.59678,18.105702 51.65717,54.498465 0.99748,2.53903 1.66246,4.533983 2.11586,6.13599 h 7.37528 V 29.699905 c -9.49114,-3.778319 -19.0125,-6.649841 -28.44319,-8.614566 -9.49113,-1.75314 -19.01249,-2.780843 -28.11068,-2.780843 -23.7883,0 -42.9217,4.896701 -57.36999,14.931915 -14.65988,9.884081 -21.91425,22.66991 -21.91425,38.448168 0,12.030166 4.14104,22.06538 12.51379,30.105641 8.40298,8.04026 27.80843,18.01502 58.27679,29.98474 20.07042,8.10071 33.06784,15.23418 38.84111,21.03767 5.95463,6.01509 8.91683,13.39036 8.91683,21.94448 0,12.51379 -5.01761,23.15353 -15.17373,31.64719 -10.09566,8.55411 -22.91172,12.81606 -38.53884,12.81606 -23.09309,0 -41.86377,-23.21399 -56.22138,-69.91401 -0.33249,-0.99626 -0.51385,-1.51132 -0.69521,-1.9345 h -7.13347 v 60.69491 c 5.83372,5.28965 14.14603,9.55159 25.60189,12.90674 11.33495,3.32492 23.72784,4.92692 37.02752,4.92692 24.42305,0 44.61438,-5.9244 60.69491,-17.83366 16.05029,-11.87903 24.0301,-26.56913 24.0301,-44.22144 0,-12.27198 -4.14104,-22.73036 -12.42311,-31.13334 -8.37275,-8.25185 -26.65982,-17.86389 -54.58915,-28.68499 -0.66498,-0.33129 -1.84381,-0.69401 -3.5365,-1.4799 -36.03005,-14.025115 -54.01484,-28.745443 -54.01484,-44.130756 0,-9.823628 4.77579,-18.135929 14.50874,-24.574183" />
    <path
       inkscape:connector-curvature="0"
       style="fill:#2674c1;fill-opacity:1;fill-rule:nonzero;stroke:none;stroke-width:24.18123817"
       id="path3195"
       d="m 492.6444,103.91793 c -0.0605,1.90548 -0.0605,3.71786 -0.18136,5.77327 l -66.28682,-0.0967 c 0.75567,-16.413012 4.35263,-28.987256 10.79088,-38.024993 6.61961,-9.037738 15.41554,-13.541494 26.56914,-13.541494 9.7934,0 17.16867,3.385374 21.91424,10.095667 4.83625,6.619614 7.19392,16.957093 7.19392,30.528813 v 5.259417 z m 32.28195,13.51126 v -4.35262 c 0,-19.193856 -5.3501,-34.186224 -16.05029,-44.886421 C 498.26654,57.58063 483.4253,52.260758 464.2919,52.260758 c -20.58428,0 -37.60183,7.254371 -51.11309,21.732888 -13.69263,14.508742 -20.61451,32.946934 -20.61451,55.375034 0,22.66991 6.92188,41.19878 20.61451,55.79821 13.75308,14.62965 30.83108,22.12583 51.47581,22.12583 18.31729,0 32.94693,-5.38033 43.73781,-16.11075 10.88156,-10.51884 16.9571,-25.75302 18.4382,-45.76299 h -8.61457 c -1.66246,17.01754 -6.68007,30.16609 -15.47599,39.74791 -8.85638,9.37023 -20.19134,14.14602 -34.18623,14.14602 -14.38783,0 -25.20894,-5.89418 -32.70512,-17.59185 -7.43573,-11.63722 -11.1536,-28.92681 -11.1536,-51.83853 0,-1.51133 0.12091,-3.77832 0.24181,-6.52893 0,-2.78084 0.12091,-4.74557 0.12091,-5.92441 z" />
    <path
       inkscape:connector-curvature="0"
       style="fill:#2674c1;fill-opacity:1;fill-rule:nonzero;stroke:none;stroke-width:24.18123817"
       id="path3199"
       d="m 255.67431,82.25178 v 84.72501 c 0,23.30467 3.2947,38.90157 9.97476,46.88138 6.49871,8.01003 17.65231,12.03016 33.52125,12.03016 5.25941,0 10.57929,-0.694 15.95961,-1.99495 5.77327,-1.54276 10.45839,-3.68764 14.05535,-6.25689 7.37527,-5.56169 12.63469,-13.05787 15.38531,-22.51878 v 34.79075 h 45.52118 v -7.67754 H 372.80219 V 57.04284 H 320.9032 v 6.680067 h 22.36765 V 164.95161 c 0,16.08053 -2.81107,28.47341 -8.37276,37.51115 -5.50123,8.79592 -13.14854,13.26945 -23.15353,13.26945 -3.869,0 -7.55664,-0.54407 -11.1536,-1.78457 -3.9899,-1.45088 -6.77074,-3.35515 -8.49366,-5.77327 -3.77832,-5.25942 -5.56168,-12.87651 -5.56168,-22.66991 V 75.570504 h -48.21134 v 6.680067 h 17.35003 z" />
    <path
       inkscape:connector-curvature="0"
       style="fill:#2674c1;fill-opacity:1;fill-rule:nonzero;stroke:none;stroke-width:24.18123817"
       id="path3203"
       d="M 173.73014,0.01429155 V 6.7548116 h 17.28959 V 197.30297 h -17.28959 v 6.74052 h 66.64954 v -6.74052 H 221.85081 V 0.01429155 Z" />
    <path
       inkscape:connector-curvature="0"
       style="fill:#2674c1;fill-opacity:1;fill-rule:nonzero;stroke:none;stroke-width:24.18123817"
       id="path3207"
       d="m 120.36215,129.89462 c 11.09314,7.13347 16.65483,18.89159 16.65483,35.1837 0,17.83367 -4.8967,30.58927 -14.65988,38.26681 -9.7934,7.49619 -26.659812,11.27451 -50.810823,11.27451 H 53.108083 v -95.42522 h 10.94201 c 26.448229,0 45.158467,3.56674 56.312057,10.7002 M 53.108083,28.36365 H 65.56142 c 22.337419,0 37.75296,2.992428 46.24662,9.249323 8.55411,6.256895 12.93696,16.89664 12.93696,31.949461 0,14.35761 -5.13851,25.088034 -15.29463,32.342406 -10.156123,7.16369 -25.692568,10.63974 -46.186167,10.63974 h -10.15612 z m -53.1080440666,0 H 19.707748 V 214.61964 H 3.89334e-5 v 6.83119 H 68.160904 c 19.193857,0 34.125776,-0.69641 44.886426,-2.23676 10.45838,-1.60322 19.28453,-4.02013 26.44823,-7.49618 10.45838,-5.01761 18.40796,-11.51632 23.84874,-19.43567 5.50123,-7.76823 8.25185,-16.6246 8.25185,-26.44823 0,-14.50875 -6.2569,-26.44823 -18.83114,-35.33484 -12.39288,-8.91683 -29.92428,-14.17625 -52.59419,-15.77825 19.1334,-2.17632 33.7026,-7.25438 43.85872,-15.052825 10.15612,-7.737996 15.29463,-17.833663 15.29463,-30.347454 0,-8.372753 -2.65994,-16.171203 -8.04026,-23.183762 C 145.99426,38.852262 138.61899,33.26035 129.15808,28.998407 122.96163,26.338471 115.82817,24.464425 107.667,23.346043 99.53606,22.107963 85.87366,21.561467 66.710029,21.561467 H 3.89334e-5 v 6.800973 z" />
    <g
       transform="translate(365.78023,413.64777)"
       id="Layer_2" />
  </g>
</svg>
